<svg data-v-6805eed4="" version="1.0" xmlns="http://www.w3.org/2000/svg" xmlns:xlink="http://www.w3.org/1999/xlink" width="200px" height="50px" viewBox="0 0 200 50" preserveAspectRatio="xMidYMid meet" color-interpolation-filters="sRGB" style="margin: auto;"> <rect data-v-6805eed4="" x="0" y="0" width="100%" height="100%" fill="#feffff" fill-opacity="1" class="background"></rect> <!----> <g data-v-6805eed4="" fill="#EFEFEF" class="iconlinesvg-g iconlinesvg"><g class="tp-name" transform="translate(0,0)"><g transform="translate(0, 0)"><g><g class="imagesvg"><g><rect fill="#EFEFEF" fill-opacity="0" stroke-width="2" x="0" y="0" width="47.79139701643391" height="47.518640022703586" class="image-rect"></rect> <svg x="0" y="0" width="47.79139701643391" height="47.518640022703586" filtersec="colorsb6103722112" class="image-svg-svg primary" style="overflow: visible;"><svg xmlns="http://www.w3.org/2000/svg" viewBox="0 0 99.9000015258789 99.33000183105469"><title>2</title><g fill-rule="evenodd"><path d="M35.94 0L6.7 80.79a128.69 128.69 0 0 1 13.51-14.53 120.53 120.53 0 0 1 21.58-15.77l8-23.75s2.45 7.26 5.79 17.09a112.67 112.67 0 0 1 21.93-6.38L64 0zm26.67 64.69C68.45 82 74.13 98.84 74.29 99.33H99.9l-17-47a147.88 147.88 0 0 0-20.29 12.36z" fill="#EFEFEF"></path><path d="M0 99.33h25.33C49 55.7 98.33 40.56 99.86 40.09 29.05 40.08 0 99.33 0 99.33" fill="#fa7c1f"></path></g></svg></svg> <!----></g></g></g></g><g transform="translate(49, 2.3138167355924146)"><g data-gra="path-name" fill="#EFEFEF" transform="scale(0.94)"><path d="M13.67-32.54C15.35-32.54 15.49-30.67 15.49-28.84L15.49 0L24.87 0L24.87-28.20C24.87-30.28 25.42-32.64 27.39-32.64C28.68-32.64 29.32-31.38 29.32-28.84L29.32 0L38.76 0L38.86-28.68C38.86-35.38 37.15-39.67 30.66-39.67C26.93-39.67 25.47-38.26 24.01-35.75C23.12-38.08 20.80-39.67 17.64-39.67C13.69-39.67 11.87-37.91 11.04-34.68L11.04-39.24L1.88-39.24L1.88 0L11.04 0L11.04-27.71C11.04-29.97 11.54-32.54 13.67-32.54Z" transform="translate(-1.8761167361524713, 48.40381179273377)"></path></g></g><g transform="translate(87, 2.3138167355924146)"><g data-gra="path-name" fill="#EFEFEF" transform="scale(0.94)"><path d="M9.01 0.43C12.23 0.43 14.06-1.94 14.85-4.66L14.85 0L24.18 0L24.18-29.91C24.18-36.22 19.54-39.67 13.19-39.67C5.19-39.67 1.66-36.84 1.66-28.95L1.66-27.66L10.77-27.66L10.77-30.02C10.77-31.33 11.46-32.59 12.65-32.59C14.09-32.59 14.74-31.02 14.74-29.37L14.74-25.35L12.17-24.50C9.24-23.57 7.06-22.72 5.63-21.95C2.33-20.18 1.07-16.74 1.07-11.26C1.07-4.42 2.48 0.43 9.01 0.43ZM12.70-6.86C11.31-6.86 10.61-8.02 10.61-10.35L10.61-15.38C10.61-18.62 12.18-19.89 14.69-20.85L14.69-9.92C14.69-8.35 14.22-6.86 12.70-6.86Z" transform="translate(-1.072066706372841, 48.40381179273377)"></path></g></g><g transform="translate(112, 2.3138167355924146)"><g data-gra="path-name" fill="#EFEFEF" transform="scale(0.94)"><path d="M0.75 0L20.32 0L20.32-7.02L10.99-7.02L20.21-32.86L20.21-39.24L1.18-39.24L1.18-31.84L10.51-31.84L0.75-5.74Z" transform="translate(-0.7504466944609889, 48.40381179273377)"></path></g></g><g transform="translate(134, 2.3138167355924146)"><g data-gra="path-name" fill="#EFEFEF" transform="scale(0.94)"><path d="M1.82-41.86L11.20-41.86L11.20-48.40L1.82-48.40ZM1.82 0L11.20 0L11.20-39.24L1.82-39.24Z" transform="translate(-1.8225134008338295, 48.40381179273377)"></path></g></g><g transform="translate(146, 2.3138167355924146)"><g data-gra="path-name" fill="#EFEFEF" transform="scale(0.94)"><path d="M13.62-32.43C15.13-32.43 15.71-30.89 15.71-29.32L15.71 0L24.93 0L24.93-30.29C24.93-35.98 22.69-39.67 17.15-39.67C13.69-39.67 11.97-37.16 11.26-34.25L11.26-39.24L1.88-39.24L1.88 0L11.26 0L11.26-27.61C11.26-30.01 11.43-32.43 13.62-32.43Z" transform="translate(-1.8761167361524718, 48.40381179273377)"></path></g></g><g transform="translate(171, 2.3138167355924146)"><g data-gra="path-name" fill="#EFEFEF" transform="scale(0.94)"><path d="M11.20-0.86C8.95-0.86 6.68-1.54 4.40-2.89L1.18 2.52C4.33 5.09 6.75 5.74 12.44 5.74C21.33 5.74 25.25 2.22 25.25-6.65L25.25-39.24L15.65-39.24L15.65-34.84C15.04-37.79 13.19-39.67 9.70-39.67C3.53-39.67 1.88-35.36 1.88-28.95L1.88-14.20C1.88-8.47 4.10-4.18 9.70-4.18C12.92-4.18 14.90-5.52 15.65-8.20L15.65-6.06C15.65-2.97 14.23-0.86 11.20-0.86ZM11.31-15.22L11.31-29.21C11.31-31.08 11.63-32.54 13.40-32.54C14.77-32.54 15.65-30.62 15.65-29.21L15.65-15.22C15.65-12.58 14.92-11.26 13.45-11.26C11.56-11.26 11.31-13.20 11.31-15.22Z" transform="translate(-1.1792733770101251, 48.40381179273377)"></path></g></g></g> <g data-gra="path-slogan" fill-rule="" class="tp-slogan" fill="#EFEFEF" transform="translate(67.5732479095459,55.20899963378906)"><!----> <!----> <g transform="scale(1, 1)"><g transform="scale(1)"><path d="M0.50-1.02L1.10-1.72Q1.52-1.27 2.09-1.00Q2.66-0.73 3.28-0.73L3.28-0.73Q4.06-0.73 4.49-1.09Q4.92-1.44 4.92-2.02L4.92-2.02Q4.92-2.32 4.82-2.53Q4.72-2.74 4.54-2.89Q4.37-3.04 4.13-3.16Q3.89-3.28 3.61-3.41L3.61-3.41L2.48-3.90Q2.21-4.02 1.92-4.19Q1.63-4.36 1.40-4.60Q1.18-4.84 1.03-5.17Q0.89-5.50 0.89-5.93L0.89-5.93Q0.89-6.37 1.07-6.76Q1.26-7.14 1.59-7.42Q1.92-7.70 2.37-7.86Q2.82-8.02 3.36-8.02L3.36-8.02Q4.07-8.02 4.67-7.75Q5.27-7.48 5.69-7.04L5.69-7.04L5.15-6.40Q4.79-6.74 4.35-6.94Q3.91-7.14 3.36-7.14L3.36-7.14Q2.70-7.14 2.30-6.83Q1.90-6.53 1.90-5.99L1.90-5.99Q1.90-5.70 2.01-5.50Q2.12-5.30 2.32-5.15Q2.51-5.00 2.74-4.89Q2.96-4.78 3.20-4.68L3.20-4.68L4.32-4.20Q4.66-4.06 4.96-3.87Q5.26-3.68 5.47-3.44Q5.69-3.19 5.81-2.86Q5.94-2.53 5.94-2.10L5.94-2.10Q5.94-1.63 5.75-1.22Q5.57-0.82 5.22-0.51Q4.87-0.20 4.38-0.03Q3.89 0.14 3.26 0.14L3.26 0.14Q2.44 0.14 1.73-0.17Q1.02-0.48 0.50-1.02L0.50-1.02ZM10.47-3.20L12.84-3.20L12.46-4.40Q12.25-5.06 12.06-5.72Q11.86-6.37 11.67-7.06L11.67-7.06L11.62-7.06Q11.44-6.37 11.25-5.72Q11.06-5.06 10.84-4.40L10.84-4.40L10.47-3.20ZM13.83 0L13.09-2.40L10.22-2.40L9.46 0L8.44 0L11.11-7.87L12.24-7.87L14.90 0L13.83 0ZM19-3.20L21.36-3.20L20.99-4.40Q20.78-5.06 20.58-5.72Q20.39-6.37 20.20-7.06L20.20-7.06L20.15-7.06Q19.97-6.37 19.78-5.72Q19.59-5.06 19.37-4.40L19.37-4.40L19-3.20ZM22.36 0L21.62-2.40L18.75-2.40L17.99 0L16.97 0L19.64-7.87L20.76-7.87L23.43 0L22.36 0ZM25.97-1.02L26.57-1.72Q26.99-1.27 27.56-1.00Q28.13-0.73 28.74-0.73L28.74-0.73Q29.52-0.73 29.95-1.09Q30.38-1.44 30.38-2.02L30.38-2.02Q30.38-2.32 30.28-2.53Q30.18-2.74 30.01-2.89Q29.83-3.04 29.59-3.16Q29.35-3.28 29.08-3.41L29.08-3.41L27.95-3.90Q27.67-4.02 27.38-4.19Q27.10-4.36 26.87-4.60Q26.64-4.84 26.50-5.17Q26.35-5.50 26.35-5.93L26.35-5.93Q26.35-6.37 26.54-6.76Q26.72-7.14 27.05-7.42Q27.38-7.70 27.83-7.86Q28.28-8.02 28.82-8.02L28.82-8.02Q29.53-8.02 30.13-7.75Q30.73-7.48 31.15-7.04L31.15-7.04L30.61-6.40Q30.25-6.74 29.81-6.94Q29.38-7.14 28.82-7.14L28.82-7.14Q28.16-7.14 27.76-6.83Q27.36-6.53 27.36-5.99L27.36-5.99Q27.36-5.70 27.47-5.50Q27.59-5.30 27.78-5.15Q27.97-5.00 28.20-4.89Q28.43-4.78 28.67-4.68L28.67-4.68L29.78-4.20Q30.12-4.06 30.42-3.87Q30.72-3.68 30.94-3.44Q31.15-3.19 31.28-2.86Q31.40-2.53 31.40-2.10L31.40-2.10Q31.40-1.63 31.22-1.22Q31.03-0.82 30.68-0.51Q30.34-0.20 29.84-0.03Q29.35 0.14 28.73 0.14L28.73 0.14Q27.90 0.14 27.19-0.17Q26.48-0.48 25.97-1.02L25.97-1.02ZM38.92-3.94L38.92-3.94Q38.92-4.88 39.18-5.64Q39.45-6.40 39.92-6.92Q40.38-7.45 41.03-7.73Q41.67-8.02 42.42-8.02L42.42-8.02Q43.14-8.02 43.68-7.72Q44.22-7.43 44.57-7.04L44.57-7.04L44.01-6.41Q43.70-6.74 43.32-6.94Q42.94-7.14 42.44-7.14L42.44-7.14Q41.87-7.14 41.42-6.92Q40.96-6.70 40.64-6.28Q40.31-5.87 40.13-5.28Q39.95-4.69 39.95-3.96L39.95-3.96Q39.95-3.22 40.13-2.62Q40.30-2.03 40.61-1.61Q40.92-1.19 41.37-0.96Q41.82-0.73 42.39-0.73L42.39-0.73Q42.96-0.73 43.39-0.96Q43.82-1.19 44.20-1.61L44.20-1.61L44.76-1.00Q44.30-0.46 43.71-0.16Q43.12 0.14 42.36 0.14L42.36 0.14Q41.62 0.14 40.99-0.13Q40.36-0.41 39.90-0.93Q39.44-1.45 39.18-2.21Q38.92-2.98 38.92-3.94ZM50.78 0.14L50.78 0.14Q50.04 0.14 49.42-0.14Q48.80-0.43 48.36-0.97Q47.92-1.50 47.67-2.26Q47.42-3.02 47.42-3.97L47.42-3.97Q47.42-4.92 47.67-5.67Q47.92-6.42 48.36-6.94Q48.80-7.46 49.42-7.74Q50.04-8.02 50.78-8.02L50.78-8.02Q51.53-8.02 52.15-7.73Q52.76-7.45 53.21-6.93Q53.66-6.41 53.91-5.66Q54.16-4.91 54.16-3.97L54.16-3.97Q54.16-3.02 53.91-2.26Q53.66-1.50 53.21-0.97Q52.76-0.43 52.15-0.14Q51.53 0.14 50.78 0.14ZM50.78-0.73L50.78-0.73Q51.31-0.73 51.74-0.96Q52.16-1.19 52.47-1.61Q52.78-2.04 52.94-2.63Q53.11-3.23 53.11-3.97L53.11-3.97Q53.11-4.70 52.94-5.29Q52.78-5.88 52.47-6.29Q52.16-6.70 51.74-6.92Q51.31-7.14 50.78-7.14L50.78-7.14Q50.26-7.14 49.83-6.92Q49.40-6.70 49.10-6.29Q48.79-5.88 48.62-5.29Q48.46-4.70 48.46-3.97L48.46-3.97Q48.46-3.23 48.62-2.63Q48.79-2.04 49.10-1.61Q49.40-1.19 49.83-0.96Q50.26-0.73 50.78-0.73ZM57.55-0.60L57.55-0.60Q57.55-0.95 57.76-1.16Q57.97-1.37 58.27-1.37L58.27-1.37Q58.56-1.37 58.77-1.16Q58.98-0.95 58.98-0.60L58.98-0.60Q58.98-0.28 58.77-0.07Q58.56 0.14 58.27 0.14L58.27 0.14Q57.97 0.14 57.76-0.07Q57.55-0.28 57.55-0.60Z" transform="translate(-0.504, 8.016)"></path></g></g></g></g><defs v-gra="od"></defs></svg>