<svg data-v-6805eed4="" version="1.0" xmlns="http://www.w3.org/2000/svg" xmlns:xlink="http://www.w3.org/1999/xlink"
  width="200px" height="75px" viewBox="0 0 200 75" preserveAspectRatio="xMidYMid meet"
  color-interpolation-filters="sRGB" style="margin: auto;">
  <rect data-v-6805eed4="" x="0" y="0" width="100%" height="100%" fill="#ffffff" fill-opacity="0" class="background">
  </rect> <!---->
  <g data-v-6805eed4="" fill="#333" class="icon-text-wrapper icon-svg-group iconsvg">
    <g class="iconsvg-imagesvg" transform="translate(0,0)">
      <g>
        <rect fill="#333" fill-opacity="0" stroke-width="2" x="0" y="0" width="63.6" height="56.9377176569592"
          class="image-rect"></rect> <svg x="0" y="0" width="63.6" height="56.9377176569592"
          filtersec="colorsb3679328168" class="image-svg-svg primary" style="overflow: visible;">
          <svg
            xmlns="http://www.w3.org/2000/svg"
            viewBox="0.6100000143051147 -0.6700000166893005 423.3900146484375 379.0400390625">
            <g fill-rule="evenodd">
              <path fill="#20adee" d="M109 0h83L41.25 270.97.61 194.82 109 0z"></path>
              <path fill="#f58220" d="M315.61 377.97h-83L383.36 107 424 183.15 315.61 377.97z"></path>
              <path fill="#20adee" d="M53 296.92l2.44-1.59h79.57l2.53 1.67 42.49 81.37h-84L53 296.92z"></path>
              <path fill="#0c56a7" d="M186 61l20-33.3 41.98 71.09L137.54 297 53 296.92l24.61-41.1L186 61z"></path>
              <path fill="#fdca06"
                d="M237.98 316.7l-20 33.3L176 278.91 286.44 80.7l.01-1.23 83.3.56 1.23.75-24.61 41.1L237.98 316.7z">
              </path>
              <path fill="#f58220" d="M243.41-.67h84l43.57 81.45-84.54-.08L243.41-.67z"></path>
            </g>
          </svg>
          </svg> <!---->
      </g>
    </g>
    <g transform="translate(70.5999984741211,0.6356601715087891)">
      <g data-gra="path-name" fill-rule="" class="tp-name iconsvg-namesvg" transform="translate(0,0)">
        <g transform="scale(0.96)">
          <g>
            <path
              d="M5.09 0L5.09-42.5 12.82-42.5 12.82 0 5.09 0ZM22.63 0L22.63-31.03Q24.78-31.65 28.21-32.2 31.65-32.75 35.82-32.75L35.82-32.75Q39.74-32.75 42.38-31.68 45.01-30.6 46.58-28.67 48.14-26.74 48.79-24.01 49.43-21.28 49.43-18.03L49.43-18.03 49.43 0 42.01 0 42.01-16.87Q42.01-19.44 41.67-21.25 41.33-23.06 40.57-24.19 39.8-25.33 38.48-25.85 37.16-26.37 35.26-26.37L35.26-26.37Q33.85-26.37 32.32-26.19 30.79-26 30.05-25.88L30.05-25.88 30.05 0 22.63 0ZM58.14-12.76L58.14-40.54 65.56-41.76 65.56-32.07 76.97-32.07 76.97-25.88 65.56-25.88 65.56-12.82Q65.56-8.95 66.79-7.3 68.01-5.64 70.96-5.64L70.96-5.64Q72.98-5.64 74.54-6.07 76.11-6.5 77.03-6.87L77.03-6.87 78.25-0.98Q76.97-0.43 74.88 0.15 72.8 0.74 69.97 0.74L69.97 0.74Q66.54 0.74 64.24-0.18 61.94-1.1 60.59-2.85 59.24-4.6 58.69-7.08 58.14-9.57 58.14-12.76L58.14-12.76ZM103.7-31.65L102.42-25.39Q101.5-25.7 99.87-26.03 98.25-26.37 96.1-26.37L96.1-26.37Q94.87-26.37 93.49-26.13 92.11-25.88 91.56-25.7L91.56-25.7 91.56 0 84.14 0 84.14-30.54Q86.29-31.34 89.51-32.04 92.73-32.75 96.65-32.75L96.65-32.75Q97.39-32.75 98.37-32.66 99.35-32.56 100.33-32.41 101.31-32.26 102.23-32.04 103.15-31.83 103.7-31.65L103.7-31.65ZM120.14-5.21L120.14-5.21Q123.58-5.21 125.35-5.58L125.35-5.58 125.35-13.8Q124.74-13.98 123.58-14.17 122.41-14.35 121-14.35L121-14.35Q119.77-14.35 118.52-14.17 117.26-13.98 116.25-13.49 115.23-13 114.62-12.11 114.01-11.22 114.01-9.87L114.01-9.87Q114.01-7.24 115.66-6.22 117.32-5.21 120.14-5.21ZM119.53-32.87L119.53-32.87Q123.21-32.87 125.72-31.95 128.24-31.03 129.74-29.38 131.24-27.72 131.88-25.36 132.53-23 132.53-20.18L132.53-20.18 132.53-0.74Q130.81-0.37 127.35 0.15 123.88 0.67 119.53 0.67L119.53 0.67Q116.65 0.67 114.25 0.12 111.86-0.43 110.17-1.66 108.49-2.88 107.54-4.84 106.59-6.81 106.59-9.69L106.59-9.69Q106.59-12.45 107.66-14.35 108.73-16.25 110.57-17.45 112.41-18.64 114.84-19.16 117.26-19.69 119.9-19.69L119.9-19.69Q121.12-19.69 122.47-19.53 123.82-19.38 125.35-19.01L125.35-19.01 125.35-20.24Q125.35-21.53 125.05-22.69 124.74-23.86 123.97-24.75 123.21-25.63 121.95-26.13 120.69-26.62 118.79-26.62L118.79-26.62Q116.22-26.62 114.07-26.25 111.92-25.88 110.57-25.39L110.57-25.39 109.65-31.4Q111.06-31.89 113.76-32.38 116.46-32.87 119.53-32.87Z"
              transform="translate(-5.090000152587891, 42.5)"></path>
          </g> <!----> <!----> <!----> <!----> <!----> <!----> <!---->
        </g>
      </g>
      <g data-gra="path-slogan" fill-rule="" class="tp-slogan iconsvg-slogansvg" fill="#333"
        transform="translate(5,47.51040267944336)">
        <rect x="0" height="1" y="3.580000400543213" width="34.7212028503418"></rect>
        <rect height="1" y="3.580000400543213" width="34.7212028503418" x="77.6212043762207"></rect>
        <g transform="translate(37.7212028503418,0)">
          <g transform="scale(1)">
            <path
              d="M0.50-1.02L1.10-1.72Q1.52-1.27 2.09-1.00Q2.66-0.73 3.28-0.73L3.28-0.73Q4.06-0.73 4.49-1.09Q4.92-1.44 4.92-2.02L4.92-2.02Q4.92-2.32 4.82-2.53Q4.72-2.74 4.54-2.89Q4.37-3.04 4.13-3.16Q3.89-3.28 3.61-3.41L3.61-3.41L2.48-3.90Q2.21-4.02 1.92-4.19Q1.63-4.36 1.40-4.60Q1.18-4.84 1.03-5.17Q0.89-5.50 0.89-5.93L0.89-5.93Q0.89-6.37 1.07-6.76Q1.26-7.14 1.59-7.42Q1.92-7.70 2.37-7.86Q2.82-8.02 3.36-8.02L3.36-8.02Q4.07-8.02 4.67-7.75Q5.27-7.48 5.69-7.04L5.69-7.04L5.15-6.40Q4.79-6.74 4.35-6.94Q3.91-7.14 3.36-7.14L3.36-7.14Q2.70-7.14 2.30-6.83Q1.90-6.53 1.90-5.99L1.90-5.99Q1.90-5.70 2.01-5.50Q2.12-5.30 2.32-5.15Q2.51-5.00 2.74-4.89Q2.96-4.78 3.20-4.68L3.20-4.68L4.32-4.20Q4.66-4.06 4.96-3.87Q5.26-3.68 5.47-3.44Q5.69-3.19 5.81-2.86Q5.94-2.53 5.94-2.10L5.94-2.10Q5.94-1.63 5.75-1.22Q5.57-0.82 5.22-0.51Q4.87-0.20 4.38-0.03Q3.89 0.14 3.26 0.14L3.26 0.14Q2.44 0.14 1.73-0.17Q1.02-0.48 0.50-1.02L0.50-1.02ZM12.47-3.20L14.84-3.20L14.46-4.40Q14.25-5.06 14.06-5.72Q13.86-6.37 13.67-7.06L13.67-7.06L13.62-7.06Q13.44-6.37 13.25-5.72Q13.06-5.06 12.84-4.40L12.84-4.40L12.47-3.20ZM15.83 0L15.09-2.40L12.22-2.40L11.46 0L10.44 0L13.11-7.87L14.24-7.87L16.90 0L15.83 0ZM23-3.20L25.36-3.20L24.99-4.40Q24.78-5.06 24.58-5.72Q24.39-6.37 24.20-7.06L24.20-7.06L24.15-7.06Q23.97-6.37 23.78-5.72Q23.59-5.06 23.37-4.40L23.37-4.40L23-3.20ZM26.36 0L25.62-2.40L22.75-2.40L21.99 0L20.97 0L23.64-7.87L24.76-7.87L27.43 0L26.36 0ZM31.97-1.02L32.57-1.72Q32.99-1.27 33.56-1.00Q34.13-0.73 34.74-0.73L34.74-0.73Q35.52-0.73 35.95-1.09Q36.38-1.44 36.38-2.02L36.38-2.02Q36.38-2.32 36.28-2.53Q36.18-2.74 36.01-2.89Q35.83-3.04 35.59-3.16Q35.35-3.28 35.08-3.41L35.08-3.41L33.95-3.90Q33.67-4.02 33.38-4.19Q33.10-4.36 32.87-4.60Q32.64-4.84 32.50-5.17Q32.35-5.50 32.35-5.93L32.35-5.93Q32.35-6.37 32.54-6.76Q32.72-7.14 33.05-7.42Q33.38-7.70 33.83-7.86Q34.28-8.02 34.82-8.02L34.82-8.02Q35.53-8.02 36.13-7.75Q36.73-7.48 37.15-7.04L37.15-7.04L36.61-6.40Q36.25-6.74 35.81-6.94Q35.38-7.14 34.82-7.14L34.82-7.14Q34.16-7.14 33.76-6.83Q33.36-6.53 33.36-5.99L33.36-5.99Q33.36-5.70 33.47-5.50Q33.59-5.30 33.78-5.15Q33.97-5.00 34.20-4.89Q34.43-4.78 34.67-4.68L34.67-4.68L35.78-4.20Q36.12-4.06 36.42-3.87Q36.72-3.68 36.94-3.44Q37.15-3.19 37.28-2.86Q37.40-2.53 37.40-2.10L37.40-2.10Q37.40-1.63 37.22-1.22Q37.03-0.82 36.68-0.51Q36.34-0.20 35.84-0.03Q35.35 0.14 34.73 0.14L34.73 0.14Q33.90 0.14 33.19-0.17Q32.48-0.48 31.97-1.02L31.97-1.02Z"
              transform="translate(-0.504, 8.016)"></path>
          </g>
        </g>
      </g>
    </g>
  </g>
  <defs v-gra="od"></defs>
</svg>